# xmcd CD database file
#
# Track frame offsets:
#	182
#	22692
#	44167
#	71220
#	95030
#	117500
#	140105
#	159000
#	188632
#	210612
#	236297
#	259180
#	281350
#	307557
#	322837
#
# Disc length: 4774 seconds
#
# Revision: 0
# Processed by: cddbd v1.4PL0 Copyright (c) Steve Scherf et al.
# Submitted via: CDex 1.51
#
DISCID=c912a40f
DTITLE=Taj Mahal - Sing A Happy Song: The Warner Brothers Recordings [CD1]
DYEAR=2001
DGENRE=Blues
TTITLE0=You Got It
TTITLE1=Freight Train
TTITLE2=Baby, You're My Destiny
TTITLE3=Sailin' Into Walker's Cay
TTITLE4=Truck Driver's Two-Step
TTITLE5=The Four Mills Brothers
TTITLE6=Honey Babe
TTITLE7=Curry
TTITLE8=Farther On Down The Road (You Will Accompany Me)
TTITLE9=Freight Train
TTITLE10=Going Up To The Country, Paint My Mailbox Blue
TTITLE11=Blackjack Davy
TTITLE12=Truck Driver's Two-Step
TTITLE13=Ain't Nobody's Business But My Own
TTITLE14=Johnny Too Bad
EXTD=YEAR: 2001
EXTT0=
EXTT1=
EXTT2=
EXTT3=
EXTT4=
EXTT5=
EXTT6=
EXTT7=
EXTT8=
EXTT9=
EXTT10=
EXTT11=
EXTT12=
EXTT13=
EXTT14=
PLAYORDER=
